# xmcd
#
# Track frame offsets: 
#        150
#        36888
#        64869
#        99318
#        136174
#        163238
#        195194
#        226043
#        265463
#
# Disc length: 4331 seconds
#
# Revision: 0
# Processed by: cddbd v1.5.2PL0 Copyright (c) Steve Scherf et al.
# Submitted via: ExactAudioCopy v0.95b4
#
DISCID=7010e909
DTITLE=Eric Clapton - 1990-08-26 - SRV Last Night - CD2
DYEAR=1990
DGENRE=Blues
TTITLE0=Pretending
TTITLE1=No Alibis
TTITLE2=Running On Faith
TTITLE3=I Shot The Sheriff
TTITLE4=White Room
TTITLE5=Can't Find My Way Home
TTITLE6=Bad Love
TTITLE7=Before You Accuse Me
TTITLE8=Old Love
EXTD=
EXTT0=
EXTT1=
EXTT2=
EXTT3=
EXTT4=
EXTT5=
EXTT6=
EXTT7=
EXTT8=
PLAYORDER=
